<?xml version="1.0" encoding="UTF-8" standalone="no"?><!DOCTYPE svg PUBLIC "-//W3C//DTD SVG 1.1//EN" "http://www.w3.org/Graphics/SVG/1.1/DTD/svg11.dtd"><svg width="100%" height="100%" viewBox="0 0 3684 3208" version="1.1" xmlns="http://www.w3.org/2000/svg" xmlns:xlink="http://www.w3.org/1999/xlink" xml:space="preserve" xmlns:serif="http://www.serif.com/" style="fill-rule:evenodd;clip-rule:evenodd;stroke-linejoin:round;stroke-miterlimit:2;"><rect id="Mesa-de-trabajo1" serif:id="Mesa de trabajo1" x="0" y="0" width="3683.633" height="3207.317" style="fill:none;"/><g><g><path d="M934.781,2323.043c-11.392,-54.655 -17.39,-111.356 -17.39,-169.442c0,-457.071 371.067,-828.117 828.126,-828.117c457.047,0 828.117,371.046 828.117,828.117c0,58.087 -6.011,114.787 -17.399,169.442l-1621.454,0Z" style="fill:#fcaf16;"/><path d="M3122.178,2471.826c0,0 -1255.732,-1140.451 -2589.569,-20.859l2589.569,20.859Z" style="fill:#0074ab;"/><path d="M1406.819,2262.258c0,0 145.139,-992.817 -381.025,-1706.397l53.478,-56.199c0,0 672.089,859.245 632.56,1758.689c0,0 -110.127,47.952 -305.013,3.908" style="fill:#0074ab;"/><path d="M1251.709,761.836c112.092,-595.291 687.953,-548.067 687.953,-548.067c-299.014,109.972 -482.523,407.002 -567.963,581.764c374.416,-245.432 646.686,84.77 646.686,84.77c-285.451,-136.834 -642.002,9.034 -698.631,33.889c-13.682,9.189 -22.023,19.263 -27.58,24.58c-44.67,42.756 -316.092,316.126 -299.139,632.239c0,0 -200.581,-378.06 169.618,-629.79c-194.146,11.926 -538.862,67.527 -755.045,301.535c0,0 179.038,-555.81 779.416,-423.218c-60.47,-85.678 -233.143,-295.202 -531.49,-391.121c0,0 465.388,-204.612 596.174,333.417" style="fill:#0074ab;"/></g><g><g><g><g><path d="M782.894,2503.077l84.187,0l-100.134,237.356l-66.756,0l-99.763,-237.356l84.187,0l48.955,143.155l49.325,-143.155Z" style="fill:#141414;"/><path d="M943.851,2535.713c-7.17,6.923 -15.824,10.384 -25.961,10.384c-10.137,0 -18.852,-3.461 -26.146,-10.384c-7.294,-6.923 -10.941,-15.206 -10.941,-24.848c0,-9.643 3.647,-17.863 10.941,-24.663c7.294,-6.799 16.009,-10.199 26.146,-10.199c10.137,0 18.791,3.4 25.961,10.199c7.17,6.799 10.755,15.02 10.755,24.663c0,9.643 -3.585,17.925 -10.755,24.848Zm-61.193,204.719l0,-175.791l70.836,0l0,175.791l-70.836,0Z" style="fill:#141414;"/><path d="M1074.025,2560.19c13.598,0 25.775,1.422 36.53,4.265c10.755,2.843 20.46,7.417 29.113,13.722c8.654,6.305 15.329,15.082 20.027,26.332c4.698,11.25 7.046,24.539 7.046,39.868l0,96.055l-63.418,0l-7.788,-19.656c-12.362,16.071 -30.782,24.106 -55.259,24.106c-17.307,0 -31.586,-4.759 -42.835,-14.278c-11.25,-9.519 -16.874,-22.314 -16.874,-38.385c0,-21.263 9.89,-37.025 29.669,-47.286c19.78,-10.261 45.74,-11.435 77.882,-3.523l7.788,1.854l0,-5.192c0,-8.901 -3.091,-15.824 -9.272,-20.769c-6.181,-4.945 -13.969,-7.417 -23.365,-7.417c-12.61,0 -24.725,4.203 -36.345,12.61l-26.702,-41.166c20.769,-14.093 45.37,-21.139 73.803,-21.139Zm21.51,116.453l0,-4.821l-1.113,-0.371c-12.362,-3.214 -22.252,-3.029 -29.669,0.556c-7.417,3.585 -11.126,8.839 -11.126,15.762c0,4.945 1.669,8.715 5.007,11.311c3.338,2.596 7.726,3.894 13.166,3.894c7.17,0 12.919,-2.349 17.245,-7.046c4.327,-4.698 6.49,-11.126 6.49,-19.285Z" style="fill:#141414;"/><path d="M1269.473,2535.713c-7.17,6.923 -15.824,10.384 -25.961,10.384c-10.137,0 -18.791,-3.461 -25.961,-10.384c-7.17,-6.923 -10.755,-15.206 -10.755,-24.848c0,-9.643 3.585,-17.863 10.755,-24.663c7.17,-6.799 15.824,-10.199 25.961,-10.199c10.137,0 18.791,3.4 25.961,10.199c7.17,6.799 10.755,15.02 10.755,24.663c0,9.643 -3.585,17.925 -10.755,24.848Zm10.013,28.928l0,162.069c0,15.082 -1.978,28.371 -5.934,39.868c-3.956,11.497 -8.777,20.46 -14.464,26.888c-5.687,6.428 -12.486,11.559 -20.398,15.391c-7.912,3.832 -15.082,6.305 -21.51,7.417c-6.428,1.113 -13.104,1.669 -20.027,1.669c-3.214,0 -6.49,-0.124 -9.828,-0.371c-3.338,-0.247 -5.748,-0.494 -7.232,-0.742l-2.225,-0.371l4.08,-58.226c1.483,0.494 3.214,0.742 5.192,0.742c5.439,0 10.322,-1.793 14.649,-5.378c4.327,-3.585 6.49,-10.075 6.49,-19.471l0,-169.487l71.207,0Z" style="fill:#141414;"/><path d="M1503.12,2658.47l0,14.093l-123.128,0c4.45,16.565 15.206,24.848 32.266,24.848c10.632,0 20.645,-3.832 30.04,-11.497l45.988,37.829c-19.285,15.329 -43.886,22.994 -73.803,22.994c-33.625,0 -60.266,-8.53 -79.922,-25.59c-19.656,-17.06 -29.484,-39.683 -29.484,-67.869c0,-27.691 9.395,-50.129 28.186,-67.313c18.791,-17.184 42.897,-25.775 72.319,-25.775c28.68,0 52.107,8.592 70.279,25.775c18.173,17.184 27.259,41.352 27.259,72.505Zm-97.538,-49.696c-14.835,0 -23.736,9.272 -26.702,27.815l54.147,0c-0.742,-8.406 -3.4,-15.144 -7.974,-20.212c-4.574,-5.069 -11.064,-7.603 -19.471,-7.603Z" style="fill:#141414;"/><path d="M1645.533,2560.19c5.439,0 10.817,0.618 16.133,1.854c5.316,1.236 9.21,2.472 11.682,3.709l3.709,1.483l-18.914,55.259c-4.945,-2.72 -10.879,-4.08 -17.802,-4.08c-12.115,0 -21.634,4.574 -28.557,13.722c-6.923,9.148 -10.384,21.016 -10.384,35.603l0,72.69l-71.207,0l0,-175.791l63.048,0l8.159,21.881c3.956,-4.945 7.417,-8.963 10.384,-12.053c2.967,-3.091 7.541,-6.243 13.722,-9.457c6.181,-3.214 12.857,-4.821 20.027,-4.821Z" style="fill:#141414;"/><path d="M1834.676,2504.931c20.027,0 37.89,3.029 53.59,9.086c15.7,6.058 28.31,14.278 37.829,24.663c9.519,10.384 16.751,21.943 21.696,34.676c4.945,12.733 7.417,26.27 7.417,40.61c0,29.175 -7.17,52.601 -21.51,70.279c-14.34,17.678 -32.636,26.517 -54.888,26.517c-18.049,0 -32.884,-7.417 -44.504,-22.252c-13.846,14.835 -30.535,22.252 -50.067,22.252c-19.532,0 -34.491,-7.294 -44.875,-21.881c-10.384,-14.587 -13.475,-32.884 -9.272,-54.888c3.709,-20.769 12.98,-38.014 27.815,-51.736c14.835,-13.722 31.524,-20.583 50.067,-20.583c14.587,0 26.332,3.956 35.232,11.868l1.854,-8.901l58.968,0l-18.173,86.783c-1.978,8.654 -1.483,15.267 1.483,19.841c2.967,4.574 7.417,6.861 13.351,6.861c6.676,0 13.166,-5.625 19.471,-16.874c6.305,-11.25 9.457,-27.012 9.457,-47.286c0,-12.115 -1.854,-23.241 -5.563,-33.378c-3.709,-10.137 -9.334,-19.347 -16.874,-27.63c-7.541,-8.283 -17.616,-14.773 -30.226,-19.471c-12.61,-4.698 -27.197,-7.046 -43.762,-7.046c-22.747,0 -43.392,5.81 -61.935,17.431c-18.543,11.621 -32.884,26.826 -43.021,45.617c-10.137,18.791 -15.206,38.818 -15.206,60.081c0,25.466 7.665,46.173 22.994,62.12c15.329,15.947 36.963,23.921 64.902,23.921c22.252,0 43.021,-5.069 62.306,-15.206l8.53,18.914c-22.994,11.621 -46.358,17.431 -70.094,17.431c-35.109,0 -62.924,-10.013 -83.445,-30.04c-20.521,-20.027 -30.782,-45.493 -30.782,-76.399c0,-26.208 6.49,-50.438 19.471,-72.69c12.98,-22.252 30.782,-39.93 53.405,-53.034c22.623,-13.104 47.409,-19.656 74.359,-19.656Zm-43.021,131.287c-1.236,7.912 -0.124,14.34 3.338,19.285c3.461,4.945 8.406,7.417 14.835,7.417c6.676,0 12.548,-2.287 17.616,-6.861c5.069,-4.574 8.221,-10.693 9.457,-18.358c1.483,-8.901 0.371,-15.947 -3.338,-21.139c-3.709,-5.192 -8.901,-7.788 -15.576,-7.788c-6.181,0 -11.806,2.472 -16.874,7.417c-5.069,4.945 -8.221,11.621 -9.457,20.027Z" style="fill:#141414;"/><path d="M1974.864,2723.001l33.749,-43.392c14.587,11.621 29.299,17.431 44.133,17.431c5.192,0 9.272,-0.989 12.239,-2.967c2.967,-1.978 4.45,-4.698 4.45,-8.159c0,-3.214 -2.04,-5.872 -6.119,-7.974c-4.08,-2.102 -9.086,-3.709 -15.02,-4.821c-5.934,-1.113 -12.486,-2.782 -19.656,-5.007c-7.17,-2.225 -13.784,-4.883 -19.841,-7.974c-6.058,-3.091 -11.064,-7.912 -15.02,-14.464c-3.956,-6.552 -5.934,-14.526 -5.934,-23.921c0,-18.296 7.417,-33.131 22.252,-44.504c14.835,-11.373 35.603,-17.06 62.306,-17.06c15.329,0 29.608,1.978 42.835,5.934c13.228,3.956 23.303,8.654 30.226,14.093l-34.491,43.021c-11.373,-8.654 -22.499,-12.98 -33.378,-12.98c-10.384,0 -15.576,3.575 -15.576,10.726c0,3.697 2.102,6.842 6.305,9.434c4.203,2.588 9.457,4.499 15.762,5.731c6.305,1.232 13.166,3.083 20.583,5.551c7.417,2.465 14.278,5.239 20.583,8.321c6.305,3.079 11.559,7.887 15.762,14.423c4.203,6.533 6.305,14.361 6.305,23.486c0,17.014 -6.985,31.068 -20.954,42.163c-13.969,11.095 -34.182,16.643 -60.637,16.643c-38.323,0 -68.611,-7.912 -90.863,-23.736Z" style="fill:#141414;"/></g><g><path d="M2374.39,2488.242l70.836,0l0,252.19l-58.597,0l-5.563,-14.835c-14.093,14.093 -31.771,21.139 -53.034,21.139c-23.488,0 -42.835,-8.345 -58.041,-25.034c-15.206,-16.689 -22.808,-39.436 -22.808,-68.24c0,-28.804 7.603,-51.551 22.808,-68.24c15.206,-16.689 34.553,-25.034 58.041,-25.034c18.049,0 33.502,5.069 46.358,15.206l0,-87.154Zm-24.477,199.156c8.406,0 15.515,-3.091 21.325,-9.272c5.81,-6.181 8.715,-14.402 8.715,-24.663c0,-10.261 -2.905,-18.482 -8.715,-24.663c-5.81,-6.181 -12.919,-9.272 -21.325,-9.272c-8.406,0 -15.515,3.091 -21.325,9.272c-5.81,6.181 -8.715,14.402 -8.715,24.663c0,10.261 2.905,18.482 8.715,24.663c5.81,6.181 12.919,9.272 21.325,9.272Z" style="fill:#141414;"/><path d="M2670.342,2658.47l0,14.093l-123.128,0c4.45,16.565 15.206,24.848 32.266,24.848c10.632,0 20.645,-3.832 30.04,-11.497l45.988,37.829c-19.285,15.329 -43.886,22.994 -73.803,22.994c-33.625,0 -60.266,-8.53 -79.922,-25.59c-19.656,-17.06 -29.484,-39.683 -29.484,-67.869c0,-27.691 9.395,-50.129 28.186,-67.313c18.791,-17.184 42.897,-25.775 72.319,-25.775c28.68,0 52.107,8.592 70.279,25.775c18.173,17.184 27.259,41.352 27.259,72.505Zm-97.538,-49.696c-14.835,0 -23.736,9.272 -26.702,27.815l54.147,0c-0.742,-8.406 -3.4,-15.144 -7.974,-20.212c-4.574,-5.069 -11.064,-7.603 -19.471,-7.603Z" style="fill:#141414;"/><path d="M2859.856,2503.077l58.968,0l0,237.356l-70.836,0l0,-162.069l-48.955,26.702l-23.365,-54.147l84.187,-47.842Z" style="fill:#141414;"/></g><path d="M3024.605,2503.077l58.968,0l0,237.356l-70.836,0l0,-162.069l-48.955,26.702l-23.365,-54.147l84.187,-47.842Z" style="fill:#141414;"/></g></g></g></g></svg>