<?xml version="1.0" encoding="UTF-8" standalone="no"?><!DOCTYPE svg PUBLIC "-//W3C//DTD SVG 1.1//EN" "http://www.w3.org/Graphics/SVG/1.1/DTD/svg11.dtd"><svg width="100%" height="100%" viewBox="0 0 3684 3208" version="1.1" xmlns="http://www.w3.org/2000/svg" xmlns:xlink="http://www.w3.org/1999/xlink" xml:space="preserve" xmlns:serif="http://www.serif.com/" style="fill-rule:evenodd;clip-rule:evenodd;stroke-linejoin:round;stroke-miterlimit:10;"><rect id="Mesa-de-trabajo1" serif:id="Mesa de trabajo1" x="0" y="0" width="3683.633" height="3207.317" style="fill:none;"/><g><g><path d="M934.781,2323.043c-11.392,-54.655 -17.39,-111.356 -17.39,-169.442c0,-457.071 371.067,-828.117 828.126,-828.117c457.047,0 828.117,371.046 828.117,828.117c0,58.087 -6.011,114.787 -17.399,169.442l-1621.454,0Z" style="fill:#fcaf16;"/><path d="M3122.178,2471.826c0,0 -1255.732,-1140.451 -2589.569,-20.859l2589.569,20.859Z" style="fill:#0074ab;"/><path d="M1406.819,2262.258c0,0 145.139,-992.817 -381.025,-1706.397l53.478,-56.199c0,0 672.089,859.245 632.56,1758.689c0,0 -110.127,47.952 -305.013,3.908" style="fill:#0074ab;"/><path d="M1251.709,761.836c112.092,-595.291 687.953,-548.067 687.953,-548.067c-299.014,109.972 -482.523,407.002 -567.963,581.764c374.416,-245.432 646.686,84.77 646.686,84.77c-285.451,-136.834 -642.002,9.034 -698.631,33.889c-13.682,9.189 -22.023,19.263 -27.58,24.58c-44.67,42.756 -316.092,316.126 -299.139,632.239c0,0 -200.581,-378.06 169.618,-629.79c-194.146,11.926 -538.862,67.527 -755.045,301.535c-0,0 179.038,-555.81 779.416,-423.218c-60.47,-85.678 -233.143,-295.202 -531.49,-391.121c0,0 465.388,-204.612 596.174,333.417" style="fill:#0074ab;"/></g><text x="549.531px" y="2736.255px" style="font-family:'ClarikaGrotesque-Black', 'Clarika Grotesque';font-weight:900;font-size:370.868px;stroke:#000;stroke-width:0.77px;">Viajer@s <tspan x="2187.385px " y="2736.255px ">d</tspan>e 1<tspan x="2875.058px " y="2736.255px ">1</tspan></text></g></svg>