<svg width="420" height="420" viewBox="0 0 420 420" xmlns="http://www.w3.org/2000/svg">
  <rect width="420" height="420" fill="none" />
  <circle cx="260" cy="210" r="90" fill="#FFB020" />
  <path
    d="M40 300c60-70 130-100 210-110 70-8 130 12 160 30v80H40z"
    fill="#0B6EA8"
  />
  <path
    d="M170 115c-30-35-55-52-88-60 25 30 45 62 62 102"
    fill="#0B6EA8"
  />
  <path
    d="M205 115c35-40 70-60 115-70-20 35-44 65-72 90"
    fill="#0B6EA8"
  />
  <path
    d="M190 120c-10-48-6-86 8-120 22 42 30 84 30 130"
    fill="#0B6EA8"
  />
  <path
    d="M196 120c-18 52-20 110-18 175"
    stroke="#0B6EA8"
    stroke-width="18"
    stroke-linecap="round"
  />
  <text
    x="210"
    y="375"
    text-anchor="middle"
    font-family="Bricolage Grotesque, Arial, sans-serif"
    font-size="40"
    font-weight="700"
    fill="#141414"
  >
    Viajer@s de 11
  </text>
</svg>
