<?xml version="1.0" encoding="UTF-8" standalone="no"?><!DOCTYPE svg PUBLIC "-//W3C//DTD SVG 1.1//EN" "http://www.w3.org/Graphics/SVG/1.1/DTD/svg11.dtd"><svg width="100%" height="100%" viewBox="0 0 15350 13367" version="1.1" xmlns="http://www.w3.org/2000/svg" xmlns:xlink="http://www.w3.org/1999/xlink" xml:space="preserve" xmlns:serif="http://www.serif.com/" style="fill-rule:evenodd;clip-rule:evenodd;stroke-linejoin:round;stroke-miterlimit:10;"><rect id="Mesa-de-trabajo1" serif:id="Mesa de trabajo1" x="0" y="0" width="15348.471" height="13363.821" style="fill:none;"/><g><g><path d="M3894.921,9679.346c-47.467,-227.729 -72.458,-463.983 -72.458,-706.008c0,-1904.463 1546.113,-3450.488 3450.525,-3450.488c1904.363,0 3450.488,1546.025 3450.488,3450.488c0,242.029 -25.046,478.279 -72.496,706.008l-6756.058,0Z" style="fill:#fcaf16;"/><path d="M13009.075,10299.275c0,0 -5232.217,-4751.879 -10789.871,-86.913l10789.871,86.913Z" style="fill:#0074ab;"/><path d="M5861.746,9426.075c0,0 604.746,-4136.738 -1587.604,-7109.988l222.825,-234.162c0,0 2800.371,3580.188 2635.667,7327.871c0,0 -458.862,199.8 -1270.887,16.283" style="fill:#0074ab;"/><path d="M5215.454,3174.317c467.05,-2480.379 2866.471,-2283.613 2866.471,-2283.613c-1245.892,458.217 -2010.512,1695.842 -2366.513,2424.017c1560.067,-1022.633 2694.525,353.208 2694.525,353.208c-1189.379,-570.142 -2675.008,37.642 -2910.962,141.204c-57.008,38.287 -91.762,80.263 -114.917,102.417c-186.125,178.15 -1317.05,1317.192 -1246.412,2634.329c0,0 -835.754,-1575.25 706.742,-2624.125c-808.942,49.692 -2245.258,281.362 -3146.021,1256.396c0,0 745.992,-2315.875 3247.567,-1763.408c-251.958,-356.992 -971.429,-1230.008 -2214.542,-1629.671c0,0 1939.117,-852.55 2484.058,1389.238" style="fill:#0074ab;"/></g><g><g><g><g><path d="M3217.872,10412.081l350.779,0l-417.226,988.981l-278.151,0l-415.681,-988.981l350.779,0l203.977,596.479l205.523,-596.479Z" style="stroke:#000;stroke-width:3.21px;"/><path d="M3888.525,10548.066c-29.875,28.845 -65.932,43.268 -108.17,43.268c-42.238,0 -78.552,-14.423 -108.942,-43.268c-30.391,-28.845 -45.586,-63.357 -45.586,-103.534c0,-40.177 15.195,-74.431 45.586,-102.761c30.391,-28.33 66.705,-42.495 108.942,-42.495c42.238,0 78.294,14.165 108.17,42.495c29.875,28.33 44.813,62.584 44.813,102.761c0,40.177 -14.938,74.689 -44.813,103.534Zm-254.972,852.996l0,-732.464l295.149,0l0,732.464l-295.149,0Z" style="stroke:#000;stroke-width:3.21px;"/><path d="M4430.92,10650.055c56.66,0 107.397,5.924 152.21,17.771c44.813,11.847 85.248,30.906 121.305,57.175c36.057,26.27 63.872,62.842 83.445,109.715c19.574,46.874 29.36,102.246 29.36,166.118l0,400.228l-264.243,0l-32.451,-81.9c-51.509,66.962 -128.259,100.443 -230.247,100.443c-72.113,0 -131.607,-19.831 -178.48,-59.493c-46.874,-39.662 -70.31,-92.975 -70.31,-159.937c0,-88.596 41.208,-154.271 123.623,-197.024c82.415,-42.753 190.585,-47.646 324.51,-14.68l32.451,7.726l0,-21.634c0,-37.087 -12.877,-65.932 -38.632,-86.536c-25.755,-20.604 -58.206,-30.906 -97.353,-30.906c-52.54,0 -103.019,17.513 -151.438,52.54l-111.26,-171.526c86.536,-58.721 189.04,-88.081 307.511,-88.081Zm89.626,485.219l0,-20.089l-4.636,-1.545c-51.509,-13.392 -92.717,-12.62 -123.623,2.318c-30.906,14.938 -46.359,36.829 -46.359,65.675c0,20.604 6.954,36.314 20.861,47.131c13.908,10.817 32.193,16.225 54.858,16.225c29.875,0 53.827,-9.787 71.856,-29.36c18.028,-19.574 27.042,-46.359 27.042,-80.355Z" style="stroke:#000;stroke-width:3.21px;"/><path d="M5245.284,10548.066c-29.875,28.845 -65.932,43.268 -108.17,43.268c-42.238,0 -78.294,-14.423 -108.17,-43.268c-29.875,-28.845 -44.813,-63.357 -44.813,-103.534c0,-40.177 14.938,-74.431 44.813,-102.761c29.875,-28.33 65.932,-42.495 108.17,-42.495c42.238,0 78.294,14.165 108.17,42.495c29.875,28.33 44.813,62.584 44.813,102.761c0,40.177 -14.938,74.689 -44.813,103.534Zm41.723,120.532l0,675.289c0,62.842 -8.242,118.214 -24.725,166.118c-16.483,47.904 -36.572,85.248 -60.266,112.033c-23.694,26.785 -52.025,48.161 -84.991,64.129c-32.966,15.968 -62.842,26.27 -89.626,30.906c-26.785,4.636 -54.6,6.954 -83.445,6.954c-13.392,0 -27.042,-0.515 -40.95,-1.545c-13.908,-1.03 -23.952,-2.06 -30.133,-3.091l-9.272,-1.545l16.998,-242.609c6.181,2.06 13.392,3.091 21.634,3.091c22.664,0 43.01,-7.469 61.039,-22.407c18.028,-14.938 27.042,-41.98 27.042,-81.127l0,-706.194l296.694,0Z" style="stroke:#000;stroke-width:3.21px;"/><path d="M6218.813,11059.555l0,58.721l-513.034,0c18.543,69.023 63.357,103.534 134.44,103.534c44.298,0 86.021,-15.968 125.168,-47.904l191.615,157.619c-80.355,63.872 -182.859,95.808 -307.511,95.808c-140.106,0 -251.109,-35.542 -333.009,-106.625c-81.9,-71.083 -122.85,-165.345 -122.85,-282.787c0,-115.381 39.147,-208.871 117.442,-280.469c78.294,-71.598 178.738,-107.397 301.33,-107.397c119.502,0 217.112,35.799 292.831,107.397c75.719,71.598 113.578,172.299 113.578,302.103Zm-406.41,-207.068c-61.811,0 -98.898,38.632 -111.26,115.896l225.611,0c-3.091,-35.026 -14.165,-63.099 -33.224,-84.218c-19.058,-21.119 -46.101,-31.678 -81.127,-31.678Z" style="stroke:#000;stroke-width:3.21px;"/><path d="M6812.201,10650.055c22.664,0 45.071,2.575 67.22,7.726c22.149,5.151 38.375,10.302 48.676,15.453l15.453,6.181l-78.809,230.247c-20.604,-11.332 -45.328,-16.998 -74.174,-16.998c-50.479,0 -90.142,19.058 -118.987,57.175c-28.845,38.117 -43.268,87.566 -43.268,148.347l0,302.876l-296.694,0l0,-732.464l262.698,0l33.996,91.172c16.483,-20.604 30.906,-37.344 43.268,-50.222c12.362,-12.877 31.421,-26.012 57.175,-39.405c25.755,-13.392 53.57,-20.089 83.445,-20.089Z" style="stroke:#000;stroke-width:3.21px;"/><path d="M7600.296,10419.808c83.445,0 157.876,12.62 223.293,37.859c65.417,25.24 117.957,59.493 157.619,102.761c39.662,43.268 69.795,91.429 90.399,144.484c20.604,53.055 30.906,109.458 30.906,169.209c0,121.562 -29.875,219.173 -89.626,292.831c-59.751,73.659 -135.985,110.488 -228.702,110.488c-75.204,0 -137.015,-30.906 -185.434,-92.717c-57.691,61.811 -127.228,92.717 -208.613,92.717c-81.385,0 -143.711,-30.391 -186.979,-91.172c-43.268,-60.781 -56.145,-137.015 -38.632,-228.702c15.453,-86.536 54.085,-158.392 115.896,-215.567c61.811,-57.175 131.349,-85.763 208.613,-85.763c60.781,0 109.715,16.483 146.802,49.449l7.726,-37.087l245.7,0l-75.719,361.596c-8.242,36.057 -6.181,63.614 6.181,82.673c12.362,19.058 30.906,28.588 55.63,28.588c27.815,0 54.858,-23.437 81.127,-70.31c26.27,-46.874 39.405,-112.548 39.405,-197.024c0,-50.479 -7.726,-96.838 -23.179,-139.075c-15.453,-42.238 -38.89,-80.612 -70.31,-115.124c-31.421,-34.511 -73.401,-61.554 -125.941,-81.127c-52.54,-19.574 -113.321,-29.36 -182.343,-29.36c-94.777,0 -180.798,24.209 -258.062,72.628c-77.264,48.419 -137.015,111.775 -179.253,190.07c-42.238,78.294 -63.357,161.74 -63.357,250.336c0,106.109 31.936,192.388 95.808,258.835c63.872,66.447 154.013,99.671 270.425,99.671c92.717,0 179.253,-21.119 259.608,-63.357l35.542,78.809c-95.808,48.419 -193.16,72.628 -292.059,72.628c-146.287,0 -262.183,-41.723 -347.689,-125.168c-85.506,-83.445 -128.259,-189.555 -128.259,-318.328c0,-109.2 27.042,-210.159 81.127,-302.876c54.085,-92.717 128.259,-166.376 222.521,-220.976c94.262,-54.6 197.539,-81.9 309.829,-81.9Zm-179.253,547.03c-5.151,32.966 -0.515,59.751 13.908,80.355c14.423,20.604 35.026,30.906 61.811,30.906c27.815,0 52.282,-9.529 73.401,-28.588c21.119,-19.058 34.254,-44.556 39.405,-76.492c6.181,-37.087 1.545,-66.447 -13.908,-88.081c-15.453,-21.634 -37.087,-32.451 -64.902,-32.451c-25.755,0 -49.192,10.302 -70.31,30.906c-21.119,20.604 -34.254,48.419 -39.405,83.445Z" style="stroke:#000;stroke-width:3.21px;"/><path d="M8184.413,11328.434l140.621,-180.798c60.781,48.419 122.077,72.628 183.889,72.628c21.634,0 38.632,-4.121 50.994,-12.362c12.362,-8.242 18.543,-19.574 18.543,-33.996c0,-13.392 -8.499,-24.467 -25.497,-33.224c-16.998,-8.757 -37.859,-15.453 -62.584,-20.089c-24.725,-4.636 -52.025,-11.59 -81.9,-20.861c-29.875,-9.272 -57.433,-20.346 -82.673,-33.224c-25.24,-12.877 -46.101,-32.966 -62.584,-60.266c-16.483,-27.3 -24.725,-60.524 -24.725,-99.671c0,-76.234 30.906,-138.045 92.717,-185.434c61.811,-47.389 148.347,-71.083 259.608,-71.083c63.872,0 123.365,8.242 178.48,24.725c55.115,16.483 97.095,36.057 125.941,58.721l-143.711,179.253c-47.389,-36.057 -93.747,-54.085 -139.076,-54.085c-43.268,0 -64.902,14.897 -64.902,44.692c0,15.405 8.757,28.507 26.27,39.308c17.513,10.785 39.405,18.745 65.675,23.879c26.27,5.135 54.858,12.845 85.763,23.131c30.906,10.27 59.493,21.827 85.763,34.672c26.27,12.829 48.161,32.861 65.675,60.097c17.513,27.22 26.27,59.839 26.27,97.86c0,70.89 -29.103,129.45 -87.309,175.679c-58.206,46.23 -142.424,69.345 -252.654,69.345c-159.679,0 -285.877,-32.966 -378.594,-98.898Z" style="stroke:#000;stroke-width:3.21px;"/><path d="M9849.104,10350.27l295.149,0l0,1050.793l-244.155,0l-23.179,-61.811c-58.721,58.721 -132.379,88.081 -220.976,88.081c-97.868,0 -178.48,-34.769 -241.837,-104.307c-63.357,-69.538 -95.035,-164.315 -95.035,-284.332c0,-120.017 31.678,-214.794 95.035,-284.332c63.357,-69.538 143.969,-104.307 241.837,-104.307c75.204,0 139.591,21.119 193.16,63.357l0,-363.142Zm-101.989,829.817c35.026,0 64.644,-12.877 88.854,-38.632c24.209,-25.755 36.314,-60.009 36.314,-102.761c0,-42.753 -12.105,-77.007 -36.314,-102.761c-24.209,-25.755 -53.827,-38.632 -88.854,-38.632c-35.026,0 -64.644,12.877 -88.854,38.632c-24.209,25.755 -36.314,60.009 -36.314,102.761c0,42.753 12.105,77.007 36.314,102.761c24.209,25.755 53.827,38.632 88.854,38.632Z" style="stroke:#000;stroke-width:3.21px;"/><path d="M11082.24,11059.555l0,58.721l-513.034,0c18.543,69.023 63.357,103.534 134.44,103.534c44.298,0 86.021,-15.968 125.168,-47.904l191.615,157.619c-80.355,63.872 -182.859,95.808 -307.511,95.808c-140.106,0 -251.109,-35.542 -333.009,-106.625c-81.9,-71.083 -122.85,-165.345 -122.85,-282.787c0,-115.381 39.147,-208.871 117.442,-280.469c78.294,-71.598 178.738,-107.397 301.33,-107.397c119.502,0 217.112,35.799 292.831,107.397c75.719,71.598 113.578,172.299 113.578,302.103Zm-406.41,-207.068c-61.811,0 -98.898,38.632 -111.26,115.896l225.611,0c-3.091,-35.026 -14.165,-63.099 -33.224,-84.218c-19.058,-21.119 -46.101,-31.678 -81.127,-31.678Z" style="stroke:#000;stroke-width:3.21px;"/><path d="M11871.88,10412.081l245.7,0l0,988.981l-295.149,0l0,-675.289l-203.977,111.26l-97.353,-225.611l350.779,-199.342Z" style="stroke:#000;stroke-width:3.21px;"/><path d="M12558.334,10412.081l245.7,0l0,988.981l-295.149,0l0,-675.289l-203.977,111.26l-97.353,-225.611l350.779,-199.342Z" style="stroke:#000;stroke-width:3.21px;"/></g></g></g></g></g></svg>